HIERARCHY
ROOT Hips
{
	OFFSET 0.00000 0.00000 0.00000
	CHANNELS 6 Xposition Yposition Zposition Zrotation Yrotation Xrotation 
	JOINT LHipJoint
	{
		OFFSET 0 0 0
		CHANNELS 3 Zrotation Yrotation Xrotation
		JOINT LeftUpLeg
		{
			OFFSET 1.62964 -1.40469 0.78906
			CHANNELS 3 Zrotation Yrotation Xrotation
			JOINT LeftLeg
			{
				OFFSET 2.29640 -6.30932 0.00000
				CHANNELS 3 Zrotation Yrotation Xrotation
				JOINT LeftFoot
				{
					OFFSET 2.29451 -6.30412 0.00000
					CHANNELS 3 Zrotation Yrotation Xrotation
					JOINT LeftToeBase
					{
						OFFSET 0.03611 -0.09921 1.56387
						CHANNELS 3 Zrotation Yrotation Xrotation
						End Site
						{
							OFFSET 0.00000 -0.00000 0.80291
						}
					}
				}
			}
		}
	}
	JOINT RHipJoint
	{
		OFFSET 0 0 0
		CHANNELS 3 Zrotation Yrotation Xrotation
		JOINT RightUpLeg
		{
			OFFSET -1.73712 -1.40469 0.78906
			CHANNELS 3 Zrotation Yrotation Xrotation
			JOINT RightLeg
			{
				OFFSET -2.28137 -6.26801 0.00000
				CHANNELS 3 Zrotation Yrotation Xrotation
				JOINT RightFoot
				{
					OFFSET -2.28681 -6.28298 0.00000
					CHANNELS 3 Zrotation Yrotation Xrotation
					JOINT RightToeBase
					{
						OFFSET -0.15927 -0.43759 1.61103
						CHANNELS 3 Zrotation Yrotation Xrotation
						End Site
						{
							OFFSET -0.00000 -0.00000 0.84630
						}
					}
				}
			}
		}
	}
	JOINT LowerBack
	{
		OFFSET 0 0 0
		CHANNELS 3 Zrotation Yrotation Xrotation
		JOINT Spine
		{
			OFFSET -0.04227 2.04338 -0.00225
			CHANNELS 3 Zrotation Yrotation Xrotation
			JOINT Spine1
			{
				OFFSET -0.02148 2.04482 -0.04273
				CHANNELS 3 Zrotation Yrotation Xrotation
				JOINT Neck
				{
					OFFSET 0 0 0
					CHANNELS 3 Zrotation Yrotation Xrotation
					JOINT Neck1
					{
						OFFSET 0.09180 1.44629 0.19359
						CHANNELS 3 Zrotation Yrotation Xrotation
						JOINT Head
						{
							OFFSET 0.00887 1.40645 0.14750
							CHANNELS 3 Zrotation Yrotation Xrotation
							End Site
							{
								OFFSET -0.00669 1.50671 0.03707
							}
						}
					}
				}
				JOINT LeftShoulder
				{
					OFFSET 0 0 0
					CHANNELS 3 Zrotation Yrotation Xrotation
					JOINT LeftArm
					{
						OFFSET 2.17674 1.86763 -0.06520
						CHANNELS 3 Zrotation Yrotation Xrotation
						JOINT LeftForeArm
						{
							OFFSET 4.65776 -0.00000 0.00000
							CHANNELS 3 Zrotation Yrotation Xrotation
							JOINT LeftHand
							{
								OFFSET 3.55539 -0.00000 0.00000
								CHANNELS 3 Zrotation Yrotation Xrotation
								JOINT LeftFingerBase
								{
									OFFSET 0 0 0
									CHANNELS 3 Zrotation Yrotation Xrotation
									JOINT LeftHandIndex1
									{
										OFFSET 0.70726 -0.00000 0.00000
										CHANNELS 3 Zrotation Yrotation Xrotation
										End Site
										{
											OFFSET 0.57022 -0.00000 0.00000
										}
									}
								}
								JOINT LThumb
								{
									OFFSET 0 0 0
									CHANNELS 3 Zrotation Yrotation Xrotation
									End Site
									{
										OFFSET 0.57892 -0.00000 0.57892
									}
								}
							}
						}
					}
				}
				JOINT RightShoulder
				{
					OFFSET 0 0 0
					CHANNELS 3 Zrotation Yrotation Xrotation
					JOINT RightArm
					{
						OFFSET -2.80694 1.55459 -0.32496
						CHANNELS 3 Zrotation Yrotation Xrotation
						JOINT RightForeArm
						{
							OFFSET -4.71925 -0.00000 -0.00000
							CHANNELS 3 Zrotation Yrotation Xrotation
							JOINT RightHand
							{
								OFFSET -3.56990 -0.00000 0.00000
								CHANNELS 3 Zrotation Yrotation Xrotation
								JOINT RightFingerBase
								{
									OFFSET 0 0 0
									CHANNELS 3 Zrotation Yrotation Xrotation
									JOINT RightHandIndex1
									{
										OFFSET -0.50776 -0.00000 0.00000
										CHANNELS 3 Zrotation Yrotation Xrotation
										End Site
										{
											OFFSET -0.40937 -0.00000 0.00000
										}
									}
								}
								JOINT RThumb
								{
									OFFSET 0 0 0
									CHANNELS 3 Zrotation Yrotation Xrotation
									End Site
									{
										OFFSET -0.41562 -0.00000 0.41562
									}
								}
							}
						}
					}
				}
			}
		}
	}
}
MOTION
Frames: 7
Frame Time: .0083333
-0.6474 18.0799 20.7918 186.6920 9.3899 -155.4140 0.0000 0.0000 0.0000 -10.3958 -14.9531 -23.6142 1.3230 7.2845 20.5609 0.7872 3.4643 -18.3632 2.3400 -9.5409 -27.5025 0.0000 0.0000 0.0000 4.8011 15.4055 -38.7684 -2.2808 -9.4280 27.1435 -0.7092 -8.7889 -21.4368 -0.6980 5.3403 -14.8817 -10.4607 -3.7817 -20.7920 0.1398 -2.2613 1.7775 5.3972 -1.8055 14.2869 0.0396 -11.5888 -4.6858 4.8380 -16.0844 21.7109 0.2863 -6.8732 7.8873 -0.0000 0.0000 0.0000 -73.9908 1.2084 22.6251 16.0371 -25.5709 -3.6620 -0.0000 0.0000 -0.7484 23.6981 -11.4169 -4.9657 -7.1250 0.0000 -0.0000 -2.4087 17.5496 1.5717 -0.0000 0.0000 0.0000 92.0013 -7.7367 10.1003 -18.8828 29.2728 -4.9734 0.0000 -0.0000 -3.6857 -15.5613 -53.1581 12.5638 7.1250 -0.0000 -0.0000 66.0653 -77.1556 -53.5455
-0.6132 18.0789 20.7783 186.9490 9.1603 -155.4910 0.0000 0.0000 0.0000 -9.9211 -15.1932 -23.5634 1.3701 7.4080 20.9299 0.8090 3.5572 -18.6400 2.2847 -9.4356 -27.1675 0.0000 0.0000 0.0000 4.1966 15.2016 -38.5513 -2.1208 -9.1132 26.1501 -0.4741 -9.8213 -20.0658 -0.7972 5.6990 -15.9136 -10.4375 -3.7916 -20.6235 0.1822 -2.3111 1.7394 5.4208 -1.8221 14.1522 -0.0157 -11.6484 -4.6198 4.9870 -16.1850 21.7553 0.3349 -6.9067 7.9120 -0.0000 0.0000 0.0000 -73.7360 1.2856 22.4500 16.0359 -25.5693 -3.6614 -0.0000 0.0000 -0.6738 23.3085 -11.4643 -4.8945 -7.1250 0.0000 -0.0000 -2.6836 17.5356 1.7523 -0.0000 0.0000 0.0000 91.9989 -7.8815 9.8400 -18.7556 29.1139 -4.9114 0.0000 -0.0000 -3.7237 -15.3424 -53.1287 12.3794 7.1250 -0.0000 -0.0000 66.0158 -77.0614 -53.4005
-0.5761 18.0767 20.7640 187.1200 9.0084 -155.5930 0.0000 0.0000 0.0000 -9.5738 -15.4347 -23.4496 1.4118 7.5150 21.2504 0.8386 3.6032 -18.9660 2.1527 -9.1771 -26.3509 0.0000 0.0000 0.0000 3.5322 14.8903 -38.4285 -2.0005 -8.8671 25.3804 -0.2964 -10.4621 -18.8060 -0.8654 5.9316 -16.5862 -10.6516 -3.8165 -20.2439 0.3030 -2.3620 1.5950 5.6771 -1.8467 13.7857 -0.1075 -11.7347 -4.7858 4.8494 -16.2826 22.1723 0.2754 -6.9399 8.0799 0.0000 -0.0000 0.0000 -73.6362 1.4621 22.3076 16.0175 -25.5443 -3.6535 -0.0000 0.0000 -0.6655 23.0401 -11.5512 -4.8678 -7.1250 0.0000 -0.0000 -2.8753 17.4674 1.8820 0.0000 -0.0000 0.0000 91.7934 -8.3073 9.7601 -18.7575 29.1162 -4.9123 0.0000 -0.0000 -4.0299 -15.0367 -53.0177 12.1115 7.1250 -0.0000 -0.0000 65.6586 -76.9101 -52.9130
-0.5334 18.0721 20.7479 187.3160 8.9426 -155.6980 0.0000 0.0000 0.0000 -9.2097 -15.4482 -23.3480 1.4508 7.6138 21.5472 0.8851 3.3018 -19.2598 1.8143 -8.4680 -24.1449 0.0000 0.0000 0.0000 2.7911 14.9056 -38.2311 -1.8885 -8.6299 24.6443 -0.1958 -10.8230 -18.0403 -0.7383 5.4891 -15.3089 -10.7419 -3.7958 -20.3026 0.2752 -2.2981 1.6894 5.7143 -1.8341 13.9243 -0.0068 -11.7774 -4.9438 4.9315 -16.3851 22.2540 0.2647 -6.9631 8.1383 0.0000 0.0000 0.0000 -73.2848 1.2951 22.1331 16.0079 -25.5314 -3.6494 -0.0000 0.0000 -0.7151 23.1008 -11.4681 -4.8476 -7.1250 0.0000 -0.0000 -2.8291 17.5512 1.8465 0.0000 0.0000 0.0000 91.9047 -8.3420 9.5793 -18.7713 29.1336 -4.9190 0.0000 -0.0000 -4.0622 -14.8011 -52.9478 11.9080 7.1250 -0.0000 -0.0000 65.4575 -76.7976 -52.6100
-0.4903 18.0676 20.7328 187.6380 8.8239 -155.7490 0.0000 0.0000 0.0000 -8.6633 -15.4427 -23.2815 1.4835 7.6953 21.7924 0.9171 3.0883 -19.4564 1.5673 -7.8997 -22.4099 0.0000 0.0000 0.0000 2.0376 15.4441 -37.8591 -1.7676 -8.3643 23.8263 -0.0817 -11.7548 -17.8027 -0.6377 5.1092 -14.2201 -10.7022 -3.7647 -20.4288 0.2745 -2.2496 1.7619 5.7028 -1.8198 14.0730 0.0586 -11.7852 -4.6750 5.2224 -16.4351 21.9489 0.3672 -6.9766 8.0111 0.0000 0.0000 0.0000 -72.9394 1.2567 21.9586 16.0975 -25.6527 -3.6881 -0.0000 0.0000 -0.6648 22.9508 -11.5811 -4.8591 -7.1250 0.0000 -0.0000 -2.9391 17.4436 1.9254 0.0000 0.0000 0.0000 92.0609 -8.3784 9.3847 -18.7987 29.1678 -4.9323 0.0000 -0.0000 -3.9763 -14.8313 -53.3597 11.9954 7.1250 -0.0000 -0.0000 67.1703 -76.9237 -54.3165
-0.4467 18.0638 20.7155 187.9820 8.6422 -155.7790 0.0000 0.0000 0.0000 -8.0780 -15.5620 -23.1940 1.5158 7.7749 22.0325 0.9495 3.0761 -19.7616 1.4940 -7.7213 -21.8708 0.0000 0.0000 0.0000 1.4450 15.7177 -37.4551 -1.6230 -8.0321 22.8117 0.0645 -12.7963 -17.3616 -0.7099 5.3848 -15.0094 -10.6382 -3.7962 -20.2106 0.3382 -2.3491 1.5901 5.7153 -1.8409 13.7589 0.0747 -11.7914 -4.4572 5.1488 -16.4089 22.1506 0.3553 -6.9542 8.0313 -0.0000 -0.0000 0.0000 -72.6714 1.6348 21.7752 16.1818 -25.7666 -3.7246 -0.0000 0.0000 -0.6266 22.5654 -11.5202 -4.7442 -7.1250 0.0000 -0.0000 -3.2062 17.5452 2.0938 -0.0000 -0.0000 0.0000 92.0806 -8.7715 9.3145 -18.7967 29.1652 -4.9314 0.0000 -0.0000 -4.0025 -14.6717 -53.7760 11.9263 7.1250 -0.0000 -0.0000 68.9870 -76.9645 -56.0434
-0.4003 18.0579 20.6954 188.2490 8.4334 -155.8560 0.0000 0.0000 0.0000 -7.5961 -15.6116 -23.1379 1.5654 7.8953 22.3964 0.9915 3.0086 -20.1222 1.5303 -7.8103 -22.1393 0.0000 0.0000 0.0000 1.0161 15.3201 -37.1110 -1.4669 -7.6540 21.6680 0.1624 -13.1088 -16.4808 -0.8191 5.7750 -16.1330 -10.6052 -3.8605 -20.3827 0.3452 -2.4200 1.6834 5.6745 -1.8860 13.9827 0.0811 -11.8108 -4.6983 5.1023 -16.4531 22.5089 0.3113 -6.9485 8.1921 0.0000 0.0000 0.0000 -72.3035 1.5384 21.5969 16.1841 -25.7696 -3.7256 -0.0000 0.0000 -0.7397 22.2563 -11.2322 -4.5576 -7.1250 0.0000 -0.0000 -3.4119 17.8821 2.2033 0.0000 0.0000 0.0000 92.1368 -8.7256 9.2004 -18.6712 29.0081 -4.8704 0.0000 -0.0000 -3.8783 -14.1882 -53.4578 11.4818 7.1250 -0.0000 -0.0000 67.7953 -76.6990 -54.6528
